# Rhino

mtllib Assignment-01_Grasshopper_Walls_Auto.mtl
usemtl Default
v 7 0 -16
v 7 3 -16
v 5 3 -16
v 5 0 -16
vn 0 0 1
vn 0 0 1
vn 0 0 1
vn 0 0 1
f 1//1 2//2 3//3 4//4
usemtl Default
v 7 0 -6
v 7 3 -6
v 5 3 -6
v 5 0 -6
vn 0 0 1
vn 0 0 1
vn 0 0 1
vn 0 0 1
f 5//5 6//6 7//7 8//8
usemtl Default
v 7 0 -10
v 7 3 -10
v 7 3 -4
v 7 0 -4
vn 1 0 0
vn 1 0 0
vn 1 0 0
vn 1 0 0
f 9//9 10//10 11//11 12//12
usemtl Default
v 0 0 -8
v 0 3 -8
v 0 3 -13
v 0 0 -13
vn -1 0 0
vn -1 0 0
vn -1 0 0
vn -1 0 0
f 13//13 14//14 15//15 16//16
usemtl Default
v 0 0 -13
v 0 3 -13
v 5 3 -13
v 5 0 -13
vn 0 0 -1
vn 0 0 -1
vn 0 0 -1
vn 0 0 -1
f 17//17 18//18 19//19 20//20
usemtl Default
v 0 0 -13
v 0 3 -13
v 0 3 -16
v 0 0 -16
vn -1 0 0
vn -1 0 0
vn -1 0 0
vn -1 0 0
f 21//21 22//22 23//23 24//24
usemtl Default
v 0 0 -16
v 0 3 -16
v 5 3 -16
v 5 0 -16
vn 0 0 -1
vn 0 0 -1
vn 0 0 -1
vn 0 0 -1
f 25//25 26//26 27//27 28//28
usemtl Default
v 5 0 -16
v 5 3 -16
v 5 3 -13
v 5 0 -13
vn 1 0 0
vn 1 0 0
vn 1 0 0
vn 1 0 0
f 29//29 30//30 31//31 32//32
usemtl Default
v 7 0 -10
v 7 3 -10
v 7 3 -16
v 7 0 -16
vn -1 0 0
vn -1 0 0
vn -1 0 0
vn -1 0 0
f 33//33 34//34 35//35 36//36
usemtl Default
v 7 0 -16
v 7 3 -16
v 12 3 -16
v 12 0 -16
vn 0 0 -1
vn 0 0 -1
vn 0 0 -1
vn 0 0 -1
f 37//37 38//38 39//39 40//40
usemtl Default
v 12 0 -16
v 12 3 -16
v 12 3 -10
v 12 0 -10
vn 1 0 0
vn 1 0 0
vn 1 0 0
vn 1 0 0
f 41//41 42//42 43//43 44//44
usemtl Default
v 7 0 -10
v 7 3 -10
v 12 3 -10
v 12 0 -10
vn 0 0 -1
vn 0 0 -1
vn 0 0 -1
vn 0 0 -1
f 45//45 46//46 47//47 48//48
usemtl Default
v 12 0 -10
v 12 3 -10
v 12 3 -4
v 12 0 -4
vn 1 0 0
vn 1 0 0
vn 1 0 0
vn 1 0 0
f 49//49 50//50 51//51 52//52
usemtl Default
v 7 0 -4
v 7 3 -4
v 12 3 -4
v 12 0 -4
vn 0 0 -1
vn 0 0 -1
vn 0 0 -1
vn 0 0 -1
f 53//53 54//54 55//55 56//56
usemtl Default
v 0 0 -6
v 0 3 -6
v 5 3 -6
v 5 0 -6
vn 0 0 -1
vn 0 0 -1
vn 0 0 -1
vn 0 0 -1
f 57//57 58//58 59//59 60//60
usemtl Default
v 0 0 -8
v 0 3 -8
v 5 3 -8
v 5 0 -8
vn 0 0 -1
vn 0 0 -1
vn 0 0 -1
vn 0 0 -1
f 61//61 62//62 63//63 64//64
usemtl Default
v 0 0 -8
v 0 3 -8
v 0 3 -6
v 0 0 -6
vn 1 0 0
vn 1 0 0
vn 1 0 0
vn 1 0 0
f 65//65 66//66 67//67 68//68
usemtl Default
v 5 0 -8
v 5 3 -8
v 5 3 -6
v 5 0 -6
vn 1 0 0
vn 1 0 0
vn 1 0 0
vn 1 0 0
f 69//69 70//70 71//71 72//72
